<svg width="175.2mm" height="60.828mm" version="1.1" viewBox="0 0 175.2 60.828" xmlns="http://www.w3.org/2000/svg">
  <title>BG AGH, logotyp</title>
  <g transform="translate(-18.328 -117.79)">
    <g transform="matrix(.94691 0 0 -.94691 98.015 148.46)">
      <path d="m0 0v5.131h3.476c1.769 0 2.806-1.207 2.806-2.86 0-1.683-1.01-2.888-2.806-2.888h-2.859c-0.393 0-0.617 0.222-0.617 0.617m0 8.048v5.02h3.084c1.626 0 2.469-1.037 2.469-2.468s-0.871-2.552-2.412-2.552zm-3.674-9.872c0-1.346 0.588-1.906 1.905-1.906h4.965c3.701 0 6.872 1.794 6.872 5.777 0 2.018-1.037 4.037-3.197 4.684v0.055c1.206 0.617 2.411 2.048 2.411 4.262 0 3.283-2.579 5.134-6.17 5.134h-8.61v-3.114h1.824z"/>
    </g>
    <g transform="matrix(.94691 0 0 -.94691 109.63 142.46)">
      <path d="m0 0c0-6.422 4.461-10.406 9.679-10.406 3.727 0 5.858 2.132 5.858 2.132h0.059s-0.028-0.42-0.028-0.841v-0.953h3.138v8.496c0 1.319-0.559 1.879-1.904 1.879h-3.227v-3.112h1.207c0.392 0 0.617-0.196 0.617-0.619v-1.485s-1.879-2.075-5.051-2.075c-3.562 0-6.535 2.665-6.535 7.011 0 4.038 2.948 6.759 6.397 6.759 3.031 0 5.106-1.765 5.106-1.765l2.073 2.635s-2.383 2.523-7.262 2.523c-5.779 0-10.127-4.459-10.127-10.179"/>
    </g>
    <g transform="matrix(.94691 0 0 -.94691 141.94 144.3)">
      <path d="m0 0 1.713 4.991c0.363 1.093 0.786 2.971 0.786 2.971h0.056s0.417-1.878 0.786-2.971l1.71-4.991zm-6.617-8.134h2.217c1.403 0 1.876 0.363 2.327 1.626l1.232 3.477h6.733l1.231-3.477c0.451-1.263 0.956-1.626 2.358-1.626h2.187v3.114h-0.448c-0.476 0-0.7 0.111-0.869 0.617l-5.89 16.182h-3.841l-5.92-16.182c-0.166-0.506-0.39-0.617-0.866-0.617h-0.451z"/>
    </g>
    <g transform="matrix(.94691 0 0 -.94691 154.29 142.46)">
      <path d="m0 0c0-6.422 4.459-10.406 9.676-10.406 3.73 0 5.861 2.132 5.861 2.132h0.056s-0.028-0.42-0.028-0.841v-0.953h3.142v8.496c0 1.319-0.562 1.879-1.908 1.879h-3.227v-3.112h1.207c0.394 0 0.617-0.196 0.617-0.619v-1.485s-1.878-2.075-5.047-2.075c-3.563 0-6.535 2.665-6.535 7.011 0 4.038 2.945 6.759 6.393 6.759 3.028 0 5.106-1.765 5.106-1.765l2.073 2.635s-2.383 2.523-7.262 2.523c-5.775 0-10.124-4.459-10.124-10.179"/>
    </g>
    <g transform="matrix(.94691 0 0 -.94691 176.43 152)">
      <path d="m0 0h3.675v8.358h8.776v-8.358h3.675v16.182c0 0.393 0.224 0.617 0.617 0.617h1.203v3.114h-3.586c-1.32 0-1.909-0.59-1.909-1.909v-6.534h-8.776v6.534c0 1.319-0.562 1.909-1.91 1.909h-3.586v-3.114h1.204c0.392 0 0.617-0.224 0.617-0.617z"/>
    </g>
    <g transform="matrix(.94691 0 0 -.94691 31.425 121.62)">
      <path d="m0 0c-0.231 0.231-0.552 0.375-0.909 0.375-0.353 0-0.675-0.144-0.905-0.376-0.232-0.232-0.377-0.553-0.377-0.908 0-0.356 0.143-0.676 0.369-0.907l8e-3 -8e-3c0.23-0.227 0.551-0.368 0.905-0.368 0.357 0 0.678 0.144 0.909 0.376 0.23 0.232 0.376 0.554 0.376 0.907 0 0.355-0.146 0.676-0.376 0.909m-7.971-20.191c-0.23 0.23-0.552 0.374-0.906 0.374s-0.675-0.144-0.909-0.376c-0.23-0.232-0.375-0.554-0.375-0.908 0-0.356 0.142-0.677 0.369-0.907l6e-3 -8e-3c0.234-0.227 0.553-0.368 0.909-0.368 0.354 0 0.676 0.144 0.906 0.376 0.234 0.232 0.377 0.554 0.377 0.907 0 0.354-0.143 0.676-0.377 0.91m7.062 24.131c1.341 0 2.554-0.544 3.43-1.42 0.464-0.465 0.835-1.024 1.081-1.646h32.418c3.254 0 6.216-1.331 8.359-3.475v-5e-3c2.142-2.145 3.473-5.102 3.473-8.354 0-3.251-1.331-6.209-3.473-8.354l-8e-3 -6e-3c-0.193-0.193-0.394-0.381-0.6-0.559 1.797-0.593 3.405-1.6 4.713-2.908 2.159-2.158 3.501-5.14 3.501-8.422 0-3.279-1.342-6.261-3.501-8.421-2.16-2.161-5.142-3.502-8.422-3.502h-28.545l-11.257-13.256-3.14-3.699v20.531h3.565v-10.834l8.654 10.191 0.539 0.633h30.184c2.297 0 4.388 0.941 5.902 2.455 1.514 1.516 2.456 3.607 2.456 5.902 0 2.296-0.942 4.388-2.456 5.902-1.514 1.513-3.605 2.456-5.902 2.456h-44.417c-0.248-0.635-0.622-1.205-1.095-1.678-0.875-0.876-2.088-1.42-3.427-1.42-1.334 0-2.544 0.544-3.42 1.42l-9e-3 8e-3c-0.876 0.878-1.42 2.088-1.42 3.42 0 1.339 0.544 2.552 1.42 3.427 0.878 0.878 2.09 1.422 3.429 1.422s2.552-0.544 3.427-1.42c0.458-0.456 0.823-1.006 1.069-1.614h40.401v0.058c2.273 0 4.343 0.929 5.841 2.426 1.497 1.499 2.426 3.568 2.426 5.842 0 2.275-0.929 4.343-2.426 5.842l-3e-3 -3e-3c-1.498 1.498-3.568 2.43-5.838 2.43h-32.418c-0.246-0.622-0.617-1.181-1.081-1.646-0.876-0.877-2.089-1.42-3.43-1.42-1.332 0-2.542 0.543-3.42 1.42l-7e-3 8e-3c-0.876 0.878-1.42 2.087-1.42 3.42 0 1.339 0.544 2.552 1.42 3.427 0.878 0.878 2.089 1.422 3.427 1.422"/>
    </g>
    <path d="m37.537 130.18h28.582v4.0196h-28.582z" fill="#fc0" fill-rule="evenodd"/>
    <path d="m37.537 149.1h31.491v4.0187h-31.491z" fill="#005eb0" fill-rule="evenodd"/>
  </g>
</svg>
